<?xml version="1.0" standalone="no"?>
<!DOCTYPE svg PUBLIC "-//W3C//DTD SVG 20010904//EN"
 "http://www.w3.org/TR/2001/REC-SVG-20010904/DTD/svg10.dtd">
<svg version="1.0" xmlns="http://www.w3.org/2000/svg"
 width="522.000000pt" height="308.000000pt" viewBox="0 0 522.000000 308.000000"
 preserveAspectRatio="xMidYMid meet">

<g transform="translate(0.000000,308.000000) scale(0.100000,-0.100000)"
fill="#000000" stroke="none">
<path d="M0 1540 l0 -1540 2610 0 2610 0 0 1540 0 1540 -2610 0 -2610 0 0
-1540z m864 -155 c38 -107 70 -195 71 -195 2 0 33 88 70 195 l68 195 81 -2
c44 0 66 -3 49 -5 l-33 -4 0 -259 0 -259 33 -4 c17 -2 -20 -4 -83 -4 -63 0
-98 2 -77 4 l37 4 -1 232 0 232 -65 -185 c-95 -270 -101 -285 -114 -285 -7 0
-46 96 -91 225 -43 124 -81 230 -83 235 -2 6 -5 -94 -5 -222 l-1 -232 38 -4
c20 -2 -1 -4 -48 -4 -47 0 -68 2 -47 4 l37 4 0 259 0 259 -37 4 c-21 2 0 4 47
5 l85 2 69 -195z m1386 -60 l0 -255 30 0 c17 0 30 -4 30 -10 0 -6 -30 -10 -70
-10 -45 0 -70 4 -70 11 0 7 -10 5 -25 -5 -79 -52 -200 26 -212 137 -13 112
105 213 201 173 l36 -15 0 109 0 109 -32 4 c-18 2 0 5 40 5 l72 2 0 -255z
m535 243 c2 -7 6 -41 10 -75 5 -53 4 -63 -10 -63 -8 0 -15 9 -15 20 0 30 -37
98 -59 110 -27 14 -88 13 -94 -2 -2 -7 -5 -124 -6 -260 l-2 -247 38 -4 c21 -2
-14 -4 -77 -4 -63 0 -98 2 -77 4 l38 4 -2 237 c-1 130 -4 247 -6 260 -4 18
-12 22 -40 22 -45 0 -98 -51 -108 -103 -4 -22 -13 -37 -21 -37 -15 0 -17 19
-8 98 l7 52 214 0 c162 0 215 -3 218 -12z m1195 -168 c0 -99 4 -180 8 -180 4
0 34 27 66 59 l59 60 -39 4 c-21 2 -1 4 46 4 47 0 69 -2 50 -4 -24 -3 -48 -17
-77 -46 -24 -23 -43 -45 -43 -50 0 -5 30 -51 68 -102 55 -77 72 -94 97 -98 17
-2 -17 -4 -75 -4 -58 0 -93 2 -77 4 15 2 27 7 27 10 0 6 -101 153 -106 153 -2
0 -4 -36 -4 -79 0 -79 0 -80 28 -84 15 -2 -18 -4 -73 -4 -55 0 -85 2 -67 4
l32 4 0 259 0 259 -32 4 c-18 2 0 5 40 5 l72 2 0 -180z m-2578 133 c34 -31 16
-73 -32 -73 -47 0 -65 37 -33 72 20 22 41 23 65 1z m2330 -168 c54 -13 74 -64
36 -89 -28 -17 -53 5 -53 45 0 29 -4 34 -27 37 -67 8 -93 -49 -86 -187 4 -72
8 -87 27 -103 43 -34 117 -13 146 42 14 26 35 41 35 24 0 -19 -38 -65 -65 -80
-40 -21 -125 -15 -163 13 -34 24 -72 98 -72 138 1 45 34 109 70 135 34 24 85
40 110 34 8 -2 27 -6 42 -9z m767 -14 c33 -23 59 -61 63 -91 l3 -25 -102 -3
-103 -3 0 -54 c0 -29 4 -65 10 -79 12 -33 50 -51 86 -42 28 7 87 60 96 86 3 8
8 12 12 8 13 -11 -24 -68 -57 -88 -92 -56 -219 9 -234 118 -11 79 45 172 113
191 37 11 83 4 113 -18z m-1137 9 c21 -6 42 -19 48 -30 5 -10 10 -75 10 -144
0 -133 9 -157 41 -117 10 12 20 17 24 12 3 -6 -3 -19 -15 -31 -24 -24 -91 -28
-110 -5 -11 13 -15 13 -41 0 -41 -22 -105 -19 -129 5 -23 23 -26 76 -7 101 21
27 63 49 108 57 l44 8 0 64 0 65 -40 0 c-39 0 -40 -1 -37 -31 2 -22 -2 -33
-14 -38 -35 -14 -60 38 -30 63 34 28 92 36 148 21z m-1548 -21 c26 -20 26 -22
26 -154 l0 -134 33 -4 c17 -2 -58 -4 -168 -4 -110 0 -188 2 -172 4 l27 4 0
144 0 144 -32 4 c-18 2 2 5 45 5 66 2 77 0 77 -15 0 -14 2 -15 18 -1 39 34
107 37 146 7z m1280 11 c52 -19 41 -94 -12 -88 -34 4 -51 32 -35 57 16 25 7
31 -27 19 -50 -17 -60 -45 -60 -172 l0 -115 33 -4 c17 -2 -13 -4 -68 -4 -55 0
-89 2 -75 4 14 3 27 9 30 13 3 4 4 69 2 143 l-3 136 -27 4 c-15 2 3 5 41 6 53
1 67 -2 67 -14 0 -12 6 -11 33 5 36 22 63 25 101 10z m1779 1 c51 -19 42 -95
-10 -89 -35 4 -52 32 -36 57 16 25 7 31 -28 19 -51 -18 -59 -40 -59 -170 l0
-117 33 -4 c17 -2 -13 -4 -68 -4 -55 0 -88 2 -72 4 l27 4 0 144 0 144 -27 4
c-16 2 2 5 40 6 56 1 67 -2 67 -16 0 -14 2 -15 18 -1 32 28 73 35 115 19z
m-3463 -150 l0 -150 33 -4 c17 -2 -15 -4 -73 -4 -58 0 -90 2 -72 4 l32 4 0
144 0 144 -32 4 c-18 2 0 5 40 5 l72 2 0 -149z m750 -561 c0 -91 -3 -110 -15
-110 -12 0 -15 18 -15 103 0 57 3 107 7 110 18 19 23 -2 23 -103z m130 -6 c0
-86 -3 -104 -15 -104 -12 0 -15 18 -15 103 0 57 3 107 6 110 17 17 24 -13 24
-109z m-930 14 c56 -123 54 -118 36 -118 -9 0 -22 11 -28 25 -10 22 -17 25
-63 25 -46 0 -53 -3 -63 -25 -10 -22 -49 -38 -40 -16 29 74 94 201 103 201 7
0 31 -42 55 -92z m2000 77 c0 -8 -7 -15 -15 -15 -8 0 -15 7 -15 15 0 8 7 15
15 15 8 0 15 -7 15 -15z m1180 -90 c0 -63 -4 -105 -10 -105 -6 0 -10 42 -10
105 0 63 4 105 10 105 6 0 10 -42 10 -105z m-2516 33 c14 -13 26 -34 28 -48 3
-24 0 -25 -54 -28 -59 -3 -67 -9 -46 -30 15 -15 50 -16 65 -1 16 16 37 1 23
-16 -32 -38 -104 -23 -125 27 -16 41 -1 87 36 105 34 18 44 16 73 -9z m474 -1
c15 -11 17 -137 2 -137 -5 0 -10 22 -10 48 0 61 -18 87 -52 79 -28 -7 -38 -30
-38 -89 0 -21 -4 -38 -10 -38 -6 0 -10 32 -10 76 0 64 2 75 15 70 8 -3 25 -2
37 3 24 9 44 5 66 -12z m232 -27 c17 -41 6 -50 -56 -50 -52 0 -54 -1 -44 -20
12 -22 58 -28 77 -9 7 7 13 7 17 1 9 -15 -22 -35 -56 -35 -36 0 -78 41 -78 76
0 29 26 66 54 76 31 12 73 -7 86 -39z m860 12 c50 -63 -13 -147 -90 -121 -34
12 -50 35 -50 73 0 39 11 57 42 71 39 16 74 8 98 -23z m608 15 c15 -11 17
-137 2 -137 -5 0 -10 21 -10 46 0 58 -14 84 -45 84 -31 0 -45 -26 -45 -84 0
-25 -4 -46 -10 -46 -6 0 -10 32 -10 76 0 64 2 75 15 70 8 -3 25 -2 37 3 24 9
44 5 66 -12z m-2543 -37 c9 -27 18 -50 20 -50 2 0 11 23 20 50 9 28 23 50 30
50 7 0 21 -24 31 -52 l17 -53 17 50 c10 30 24 51 33 53 10 2 17 1 17 -1 0 -7
-50 -140 -57 -150 -9 -14 -27 11 -44 61 l-16 47 -17 -52 c-27 -82 -40 -79 -71
17 -10 30 -20 61 -23 68 -2 6 3 12 11 12 10 0 22 -19 32 -50z m1262 33 c3 -9
-7 -12 -34 -10 -49 3 -52 -22 -5 -37 42 -14 57 -38 42 -66 -11 -20 -59 -27
-94 -14 -30 11 -16 23 25 21 56 -3 62 18 11 39 -45 18 -57 36 -41 65 8 16 19
19 51 17 23 -2 43 -9 45 -15z m190 1 c2 -7 -10 -11 -33 -10 -51 1 -52 -16 -2
-39 68 -32 61 -85 -11 -85 -45 0 -71 14 -55 30 9 9 14 9 18 1 4 -6 20 -11 37
-11 42 0 37 26 -8 47 -37 18 -50 40 -39 69 7 18 87 16 93 -2z m251 -75 c-2
-74 -6 -94 -20 -103 -24 -14 -34 -1 -14 19 12 12 16 36 16 96 0 48 4 79 10 79
7 0 10 -33 8 -91z m352 43 c0 -61 18 -87 52 -79 28 7 38 30 38 90 0 20 5 37
10 37 6 0 10 -31 10 -74 0 -70 -1 -74 -22 -74 -13 -1 -35 -2 -50 -3 -46 -3
-58 16 -58 87 0 36 4 64 10 64 6 0 10 -22 10 -48z m230 36 c0 -9 3 -9 12 0 15
15 48 16 48 2 0 -5 -4 -10 -10 -10 -26 0 -50 -41 -50 -85 0 -33 -4 -45 -15
-45 -12 0 -15 15 -15 75 0 60 3 75 15 75 8 0 15 -5 15 -12z m474 -10 c10 -13
16 -44 16 -74 l0 -52 -37 -1 c-67 -3 -74 -2 -89 10 -17 14 -18 51 -2 67 7 7
31 12 55 12 24 0 43 4 43 9 0 19 -31 33 -60 27 -22 -4 -30 -2 -30 9 0 11 12
15 44 15 35 0 48 -5 60 -22z m151 -463 c1 -11 4 -25 8 -32 14 -23 -4 -43 -39
-43 l-34 0 0 51 0 50 33 -3 c24 -2 32 -8 32 -23z m44 8 c10 -17 12 -17 26 1
21 27 31 13 11 -16 -9 -12 -16 -33 -16 -45 0 -13 -4 -23 -10 -23 -5 0 -10 9
-10 20 0 12 -7 34 -15 50 -16 32 -3 42 14 13z"/>
<path d="M2055 1336 c-23 -23 -25 -32 -25 -125 0 -137 21 -175 83 -152 46 18
57 47 57 148 0 81 -3 95 -22 117 -35 38 -63 42 -93 12z"/>
<path d="M4380 1330 c-12 -12 -20 -33 -20 -55 l0 -35 60 0 60 0 0 39 c0 66
-56 95 -100 51z"/>
<path d="M3266 1179 c-20 -16 -26 -29 -26 -59 0 -38 20 -70 43 -70 7 0 23 7
35 16 19 13 22 24 22 75 0 55 -1 59 -24 59 -13 0 -35 -9 -50 -21z"/>
<path d="M1685 1318 c-32 -28 -44 -79 -45 -185 l0 -83 61 0 61 0 -4 135 c-2
107 -6 138 -18 145 -21 14 -26 13 -55 -12z"/>
<path d="M1285 654 c-8 -20 -15 -38 -15 -40 0 -2 16 -4 35 -4 19 0 35 2 35 4
0 9 -31 76 -35 76 -3 0 -12 -16 -20 -36z"/>
<path d="M1952 648 c-21 -21 -13 -28 28 -28 22 0 40 4 40 8 0 14 -23 32 -40
32 -9 0 -21 -5 -28 -12z"/>
<path d="M2630 640 c-10 -19 -8 -20 35 -20 46 0 54 7 33 28 -19 19 -56 14 -68
-8z"/>
<path d="M3490 645 c-29 -35 -7 -95 36 -95 49 0 72 61 36 93 -23 21 -56 22
-72 2z"/>
<path d="M4324 585 c-8 -21 4 -35 30 -35 25 0 46 17 46 37 0 19 -69 17 -76 -2z"/>
<path d="M4510 195 c0 -8 9 -15 20 -15 11 0 20 7 20 15 0 8 -9 15 -20 15 -11
0 -20 -7 -20 -15z"/>
<path d="M4510 150 c0 -16 5 -21 23 -18 12 2 22 10 22 18 0 8 -10 16 -22 18
-18 3 -23 -2 -23 -18z"/>
</g>
</svg>
